Coordinates
version=1
nRows=6
nColumns=36
inDegrees=yes

Units are S.I. units (second, meters, Newtons, ...)
If the header above contains a line with 'inDegrees', this indicates whether rotational values are in degrees (yes) or radians (no).

endheader
time	pelvis_tilt	pelvis_list	pelvis_rotation	pelvis_tx	pelvis_ty	pelvis_tz	hip_flexion_r	hip_adduction_r	hip_rotation_r	knee_angle_r	knee_angle_r_beta	ankle_angle_r	subtalar_angle_r	mtp_angle_r	hip_flexion_l	hip_adduction_l	hip_rotation_l	knee_angle_l	knee_angle_l_beta	ankle_angle_l	subtalar_angle_l	mtp_angle_l	lumbar_extension	lumbar_bending	lumbar_rotation	arm_flex_r	arm_add_r	arm_rot_r	elbow_flex_r	pro_sup_r	arm_flex_l	arm_add_l	arm_rot_l	elbow_flex_l	pro_sup_l
     12.45000000	    -13.59077744	     -0.86731712	      0.63145119	      0.04053493	      0.58161163	      0.05033838	     69.87761047	    -29.30993512	     -7.50043649	    102.17391375	      1.78327120	     32.00138544	    -22.10078050	     -7.49999987	     71.32631318	    -33.15457595	     -6.78888637	     97.63056679	      1.70397484	     23.44365825	    -18.38532576	     -7.49999987	     -5.76167432	     -3.13766506	     -0.10335426	     61.94553362	      5.77070165	     65.73239424	    123.29176649	     86.59036451	     61.82203790	     11.60063122	     71.36756718	    112.11581882	     68.72191319
     12.46666670	    -13.89919097	     -0.98563337	      0.52682382	      0.03936475	      0.57402997	      0.05008084	     71.26064690	    -29.37444516	     -7.13263078	    103.42223085	      1.80505845	     32.02242428	    -22.39622541	     -7.49999987	     72.96485827	    -33.33691189	     -6.09002260	     98.82370283	      1.72479899	     22.78964365	    -19.83404724	     -7.49999987	     -6.01577737	     -2.96936984	     -0.11405736	     62.70067080	      5.73003166	     66.53441553	    123.75737747	     85.90948814	     61.69636541	     11.79230666	     71.57771023	    112.52014615	     68.39937567
     12.48333330	    -13.85869922	     -0.96728328	      0.59706863	      0.04079276	      0.56758113	      0.05014935	     71.98728876	    -29.69203365	     -6.62319094	    104.53003949	      1.82439336	     32.26902543	    -22.25030746	     -7.49999987	     73.64384711	    -33.66317755	     -5.68100752	     99.86168058	      1.74291512	     23.13891948	    -19.55528562	     -7.49999987	     -6.58088738	     -2.96053089	     -0.13852674	     62.85789762	      5.72131099	     66.73173785	    123.62454703	     85.89053634	     61.62056251	     11.86809850	     71.78481058	    112.66520069	     68.45832750
     12.50000000	    -14.23747488	     -1.06529851	      0.54496293	      0.03812732	      0.56187191	      0.04991563	     73.20079641	    -29.60993621	     -6.09409791	    105.49747833	      1.84127835	     33.42858034	    -21.82272115	     -7.49999987	     74.98100347	    -33.87798418	     -4.92028093	    101.08584343	      1.76428079	     24.71784696	    -17.67694197	     -7.49999987	     -6.57880070	     -2.70424541	     -0.03697860	     63.57721156	      5.61991006	     66.72096646	    123.51167177	     86.20188513	     61.48308160	     11.76271649	     71.14255370	    112.69288683	     68.55940343
     12.51666670	    -14.30748430	     -0.99731528	      0.55776540	      0.03610950	      0.55708127	      0.05053497	     74.01981787	    -29.69511401	     -5.64207586	    106.36661162	      1.85644759	     34.08827676	    -21.72902792	     -7.49999987	     75.84314018	    -33.99210357	     -4.41893472	    102.03833646	      1.78090493	     24.88073369	    -17.28844687	     -7.49999987	     -7.11247772	     -2.70838339	     -0.08975846	     64.20439084	      5.63124103	     66.80224193	    123.44816997	     86.08077065	     62.02179033	     11.65760928	     71.00192566	    112.68579032	     68.54667567
     12.53333330	    -14.39005542	     -1.04049857	      0.58918075	      0.03731353	      0.55184740	      0.05199175	     74.71663665	    -29.70184158	     -5.28404072	    107.35413546	      1.87368313	     34.98968231	    -21.19073858	     -7.49999987	     76.96219076	    -34.16001864	     -3.54322047	    103.15392381	      1.80037561	     25.16759547	    -16.42215938	     -7.49999987	     -7.42259531	     -2.64200440	     -0.06144073	     64.52309739	      5.53933775	     67.07274070	    123.53238362	     86.37222250	     62.26003101	     11.45543451	     71.08773459	    112.81635729	     68.71601582
